# xmcd
#
# Track frame offsets:
#	150
#	12485
#	29307
#	47632
#	59460
#	74577
#	91542
#	108892
#	123730
#	141185
#
# Disc length: 2054
#
# Revision: 2
# Processed by: cddbd v1.5.1PL0 Copyright (c) Steve Scherf et al.
# Submitted via: DiscPlay 4.0.3
# Normalized: r1:DSETVAR1
#
DISCID=8808040a
DTITLE=Various Artist - New Country - Volume 4 No. 9
DYEAR=1900
DGENRE=
TTITLE0=Kentucky Headhunters - Singin' the Blues
TTITLE1=John and Audrey Wiggins - Going With My Heart
TTITLE2=Lee Roy Parnell - Honky Tonk Night Time Man
TTITLE3=Lonesome Strangers - Lingerin' Thing
TTITLE4=Charlie Daniels - Boogie Woogie Baltimore
TTITLE5=Duke Levine - Quiz Show
TTITLE6=Dale Ann Bradley - East Kentucky Morning
TTITLE7=Neil Mooney - Devil #2
TTITLE8=Julie MIller - Take Me Back
TTITLE9=Sammy Shelob - Mountain Girl
EXTD=
EXTT0=
EXTT1=
EXTT2=
EXTT3=
EXTT4=
EXTT5=
EXTT6=
EXTT7=
EXTT8=
EXTT9=
PLAYORDER=
